<?xml version="1.0" encoding="UTF-8"?> <svg xmlns="http://www.w3.org/2000/svg" width="211.507" height="32" viewBox="0 0 211.507 32"><g id="logo" transform="translate(-320 -32)"><path id="Path_101" data-name="Path 101" d="M56.01,3.085h6.312V28.914H56.01V18.351H44.157V28.914h-6.35V3.085h6.35V13.109H56.01ZM88.918,17.966v2.505H72.37V20.7c0,2.852,1.808,4.279,5.041,4.279h.731c2.694,0,4.388-.771,4.926-2.66h5.658C88.187,26.409,84.8,29.3,78.142,29.3h-.731c-6.273,0-10.852-2.93-10.852-9.1V17.966c0-6.168,4.541-9.214,10.852-9.214h.731c6.274,0,10.776,3.046,10.776,9.214m-5.85-1.388c-.23-2.275-2.117-3.508-4.964-3.508h-.731c-3.041,0-4.734,1.233-4.965,3.508ZM116.206,22.9H114.9L111.857,9.138h-6.889L101.775,22.9h-1.232L97.195,9.138H91.23L96,28.914h8.505l2.925-12.452h1.077l2.771,12.452h8.7l5-19.776h-5.311Zm32.139-6.977V28.914h-6.157v-2.5h-.924c-1.54,2-3.733,2.891-7.081,2.891-4.156,0-7.158-1.85-7.158-5.975,0-4.01,2.655-6.361,8.813-6.361h6.35V15.923c0-1.966-1.347-2.892-4-2.892h-.692c-2.54,0-4,.887-4,2.815h-6.042c0-4.472,3.425-7.094,10.045-7.094h.731c6.965,0,10.121,2.661,10.121,7.171m-6.157,4.587h-5.5c-2.578,0-3.579.732-3.579,2.2,0,1.31,1.078,2.12,3.656,2.12s5.427-.926,5.427-3.74Zm10.355,8.4H158.7V3.085h-6.158Zm32.482-10.948v2.505H168.477V20.7c0,2.852,1.809,4.279,5.041,4.279h.731c2.694,0,4.388-.771,4.926-2.66h5.658c-.539,4.087-3.926,6.978-10.584,6.978h-.731c-6.272,0-10.852-2.93-10.852-9.1V17.966c0-6.168,4.541-9.214,10.852-9.214h.731c6.274,0,10.776,3.046,10.776,9.214m-5.85-1.388c-.23-2.275-2.116-3.508-4.964-3.508h-.731c-3.04,0-4.734,1.233-4.965,3.508Zm23.25,2.082,8.351-9.522h-6.5l-4.425,4.973h-1.809L193.65,9.138h-7.273l8.736,9.753L186.3,28.914h6.58l4.773-5.435h1.809l4.926,5.435h7.119Z" transform="translate(320 32)" fill="#1d1d1b"></path><path id="Path_102" data-name="Path 102" d="M22.13,15.5V16.5c0,3.471,1.126,5.831,3.36,6.826V32c-6.532-1.592-9.666-7.638-9.666-15.5V15.5c0-7.859,3.134-13.9,9.666-15.5V8.671c-2.234,1-3.36,3.355-3.36,6.826M0,0V8.671c2.235,1,3.36,3.355,3.36,6.826V16.5c0,3.471-1.125,5.831-3.36,6.826V32c6.532-1.592,9.666-7.638,9.666-15.5V15.5C9.666,7.638,6.532,1.592,0,0" transform="translate(320 32)" fill="#e3a14e"></path></g></svg> 