<?xml version="1.0" encoding="UTF-8" standalone="no"?>
<!-- Creator: CorelDRAW X5 -->

<svg
   xmlns:dc="http://purl.org/dc/elements/1.1/"
   xmlns:cc="http://creativecommons.org/ns#"
   xmlns:rdf="http://www.w3.org/1999/02/22-rdf-syntax-ns#"
   xmlns:svg="http://www.w3.org/2000/svg"
   xmlns="http://www.w3.org/2000/svg"
   xmlns:sodipodi="http://sodipodi.sourceforge.net/DTD/sodipodi-0.dtd"
   xmlns:inkscape="http://www.inkscape.org/namespaces/inkscape"
   xml:space="preserve"
   width="324.61264"
   height="281.897"
   style="fill-rule:evenodd"
   viewBox="0 0 91.612901 79.5576"
   id="svg2"
   version="1.1"
   inkscape:version="0.48.4 r9939"
   sodipodi:docname="ico_katalog_hewalex.svg"><metadata
   id="metadata14"><rdf:RDF><cc:Work
       rdf:about=""><dc:format>image/svg+xml</dc:format><dc:type
         rdf:resource="http://purl.org/dc/dcmitype/StillImage" /></cc:Work></rdf:RDF></metadata><sodipodi:namedview
   pagecolor="#ffffff"
   bordercolor="#666666"
   borderopacity="1"
   objecttolerance="10"
   gridtolerance="10"
   guidetolerance="10"
   inkscape:pageopacity="0"
   inkscape:pageshadow="2"
   inkscape:window-width="640"
   inkscape:window-height="480"
   id="namedview12"
   showgrid="false"
   fit-margin-top="0"
   fit-margin-left="0"
   fit-margin-right="0"
   fit-margin-bottom="0"
   inkscape:zoom="0.22425739"
   inkscape:cx="162.30472"
   inkscape:cy="140.94708"
   inkscape:window-x="0"
   inkscape:window-y="0"
   inkscape:window-maximized="0"
   inkscape:current-layer="svg2" />
 <defs
   id="defs4">
  <style
   type="text/css"
   id="style6">
   
    .fil0 {fill:#45A448;fill-rule:nonzero}
   
  </style>
 </defs>
 <g
   id="Warstwa_x0020_1"
   transform="translate(-59.194001,-108.7208)">
  <metadata
   id="CorelCorpID_0Corel-Layer" />
  <path
   class="fil0"
   d="m 115.439,112.747 13.2915,2.0625 16.9947,17.5765 -7.4363,7.3409 -7.6754,-7.4561 -3.0703,-2.9826 0,4.2773 0,51.0907 -45.0855,0 0,-51.0907 0,-4.2773 -3.0703,2.9826 -7.6754,7.4561 -7.4362,-7.3409 16.9946,-17.5765 13.295,-2.063 c 0.878,2.1899 2.1302,4.0699 3.6413,5.4793 1.9231,1.7935 4.259,2.8392 6.7964,2.8392 2.5554,0 4.9071,-1.0613 6.8386,-2.8794 1.4914,-1.4036 2.7279,-3.2685 3.5973,-5.4386 z m -17.9734,-2.6488 -0.3563,-1.3774 -16.9941,2.6168 -0.6033,0.0936 -0.4226,0.437 -18.6562,19.295 -1.2391,1.2816 1.2745,1.2582 9.967,9.8392 1.2563,1.2402 1.2693,-1.2331 5.8745,-5.7066 0,48.6246 0,1.8111 1.811,0 0.5338,0 47.6402,0 0.5337,0 1.8111,0 0,-1.8111 0,-48.6246 5.8744,5.7066 1.2693,1.2331 1.2563,-1.2402 9.967,-9.8392 1.2745,-1.2582 -1.2391,-1.2816 -18.6562,-19.295 -0.4226,-0.437 -0.6033,-0.0936 -16.9941,-2.6168 -0.3563,1.3774 0.005,0.007 c -0.6676,2.2436 -1.7803,4.1362 -3.175,5.4488 -1.2671,1.1928 -2.7698,1.8891 -4.3625,1.8891 -1.5804,0 -3.0726,-0.6863 -4.3344,-1.863 -1.4081,-1.3133 -2.5314,-3.2186 -3.2031,-5.4817 z"
   id="path10"
   inkscape:connector-curvature="0"
   style="fill:#45a448;fill-rule:nonzero" />
 </g>
</svg>