<?xml version="1.0" encoding="UTF-8"?>
<!DOCTYPE svg PUBLIC "-//W3C//DTD SVG 1.1//EN" "http://www.w3.org/Graphics/SVG/1.1/DTD/svg11.dtd">
<!-- Creator: CorelDRAW X5 -->
<svg xmlns="http://www.w3.org/2000/svg" xml:space="preserve" width="63.5mm" height="14mm" style="shape-rendering:geometricPrecision; text-rendering:geometricPrecision; image-rendering:optimizeQuality; fill-rule:evenodd; clip-rule:evenodd"
viewBox="0 0 63.5 14"
 xmlns:xlink="http://www.w3.org/1999/xlink">
 <defs>
  <style type="text/css">
   <![CDATA[
    .fil1 {fill:#222D4E}
    .fil0 {fill:#222D4E;fill-rule:nonzero}
   ]]>
  </style>
 </defs>
 <g id="Warstwa_x0020_1">
  <metadata id="CorelCorpID_0Corel-Layer"/>
  <g id="_542624864">
   <path id="_542610200" class="fil0" d="M24.4933 13.8997l0 -2.438 1.7625 0 0 0.2878 -1.4401 0 0 0.7465 1.3487 0 0 0.286 -1.3487 0 0 0.8299 1.4968 0 0 0.2878 -1.8192 0zm2.4223 0l0 -2.438 0.3309 0 1.2806 1.9141 0 -1.9141 0.3093 0 0 2.438 -0.3308 0 -1.2807 -1.9157 0 1.9157 -0.3093 0zm2.6306 0l0 -2.438 1.7625 0 0 0.2878 -1.4401 0 0 0.7465 1.3487 0 0 0.286 -1.3487 0 0 0.8299 1.4969 0 0 0.2878 -1.8193 0zm2.4308 0l0 -2.438 1.0808 0c0.2174,0 0.3826,0.0222 0.4955,0.0659 0.113,0.0437 0.2032,0.1209 0.2713,0.2316 0.0676,0.1112 0.1011,0.2338 0.1011,0.3678 0,0.1731 -0.0556,0.3185 -0.168,0.4371 -0.1118,0.1186 -0.285,0.1941 -0.5188,0.2265 0.0856,0.0408 0.1504,0.0811 0.1946,0.1214 0.0943,0.0863 0.1835,0.1948 0.268,0.3241l0.424 0.6636 -0.4058 0 -0.3224 -0.5074c-0.0943,-0.1459 -0.1721,-0.2584 -0.2333,-0.3356 -0.0608,-0.0777 -0.1153,-0.1322 -0.1635,-0.1628 -0.0483,-0.0313 -0.0971,-0.0528 -0.147,-0.0653 -0.0369,-0.0074 -0.0965,-0.0114 -0.18,-0.0114l-0.3741 0 0 1.0825 -0.3224 0zm0.3224 -1.3618l0.6937 0c0.147,0 0.2628,-0.0153 0.3457,-0.0459 0.0834,-0.0306 0.1464,-0.0795 0.1896,-0.1465 0.0431,-0.0669 0.0647,-0.1396 0.0647,-0.2185 0,-0.1152 -0.0415,-0.2101 -0.1255,-0.2844 -0.0834,-0.0744 -0.2157,-0.1112 -0.3967,-0.1112l-0.7715 0 0 0.8065zm3.4338 0.4054l0 -0.2856 1.0326 -0.0017 0 0.9043c-0.1584,0.1265 -0.3219,0.2213 -0.4905,0.2855 -0.1686,0.0635 -0.3417,0.0953 -0.5188,0.0953 -0.2396,0 -0.4575,-0.051 -0.6528,-0.1538 -0.1958,-0.1021 -0.3434,-0.2509 -0.4433,-0.4444 -0.0999,-0.1942 -0.1499,-0.411 -0.1499,-0.6506 0,-0.2372 0.05,-0.4586 0.1493,-0.6641 0.0988,-0.206 0.2418,-0.3587 0.428,-0.4587 0.1862,-0.0993 0.4008,-0.1492 0.6438,-0.1492 0.1759,0 0.3354,0.0284 0.4779,0.0857 0.1424,0.0567 0.2542,0.1362 0.3348,0.2384 0.0813,0.1022 0.1425,0.235 0.1851,0.399l-0.2912 0.0801c-0.0369,-0.1243 -0.0822,-0.2219 -0.1362,-0.2929 -0.0545,-0.071 -0.1322,-0.1277 -0.2333,-0.1703 -0.1005,-0.0426 -0.2128,-0.0642 -0.3355,-0.0642 -0.1475,0 -0.2753,0.0228 -0.3825,0.0676 -0.1079,0.0448 -0.1942,0.1038 -0.2606,0.1771 -0.0658,0.0733 -0.117,0.1532 -0.1539,0.2413 -0.0618,0.1504 -0.0931,0.3139 -0.0931,0.4904 0,0.2174 0.0376,0.399 0.1125,0.5454 0.0749,0.1466 0.1839,0.255 0.3269,0.3259 0.1431,0.0709 0.2946,0.1067 0.4553,0.1067 0.1402,0 0.2764,-0.0272 0.4092,-0.0811 0.1334,-0.0534 0.2339,-0.1107 0.3026,-0.1721l0 -0.454 -0.7164 0zm1.7241 0.9564l0 -2.438 0.3224 0 0 2.438 -0.3224 0zm0.7841 0l0.9366 -2.438 0.3474 0 0.9979 2.438 -0.3678 0 -0.2844 -0.7385 -1.0194 0 -0.2674 0.7385 -0.3429 0zm0.7034 -1.0013l0.827 0 -0.2549 -0.6749c-0.0772,-0.2049 -0.1351,-0.3735 -0.1725,-0.5058 -0.0312,0.1567 -0.075,0.3117 -0.1318,0.466l-0.2678 0.7147zm3.3462 1.0013l0 -0.2991 1.2487 -1.5616c0.0892,-0.1112 0.1732,-0.2077 0.2532,-0.2895l-1.3606 0 0 -0.2878 1.746 0 0 0.2878 -1.3685 1.691 -0.1482 0.1714 1.5571 0 0 0.2878 -1.9277 0zm2.4427 0l0 -2.438 1.7625 0 0 0.2878 -1.4401 0 0 0.7465 1.3487 0 0 0.286 -1.3487 0 0 0.8299 1.4969 0 0 0.2878 -1.8193 0zm4.0478 -0.7833l0.3043 -0.0267c0.0142,0.122 0.0477,0.222 0.1005,0.3003 0.0528,0.0783 0.1345,0.1413 0.2452,0.1896 0.1106,0.0482 0.2356,0.072 0.374,0.072 0.1232,0 0.2317,-0.0181 0.3259,-0.0544 0.0941,-0.0369 0.1646,-0.0868 0.2106,-0.1505 0.046,-0.0641 0.0692,-0.1334 0.0692,-0.2088 0,-0.0767 -0.0221,-0.1431 -0.0669,-0.2005 -0.0444,-0.0572 -0.1176,-0.105 -0.2192,-0.1435 -0.0658,-0.0256 -0.21,-0.0653 -0.4342,-0.1192 -0.2237,-0.054 -0.3809,-0.1045 -0.4706,-0.1521 -0.1164,-0.0608 -0.2032,-0.1368 -0.2605,-0.2272 -0.0568,-0.0902 -0.0852,-0.1912 -0.0852,-0.3036 0,-0.1226 0.0347,-0.2378 0.1045,-0.3445 0.0697,-0.1074 0.1719,-0.1885 0.306,-0.2441 0.1345,-0.0551 0.2832,-0.0829 0.4473,-0.0829 0.181,0 0.3399,0.029 0.4785,0.0874 0.1379,0.0579 0.244,0.1436 0.3183,0.2566 0.0739,0.113 0.1142,0.2412 0.1199,0.3843l-0.3094 0.0232c-0.017,-0.1538 -0.0732,-0.2707 -0.1691,-0.3491 -0.096,-0.0788 -0.2374,-0.118 -0.4247,-0.118 -0.1952,0 -0.3372,0.0358 -0.4268,0.1073 -0.0891,0.0715 -0.134,0.1577 -0.134,0.2583 0,0.0879 0.0318,0.16 0.0948,0.2162 0.0625,0.0568 0.2242,0.1146 0.4865,0.1737 0.2622,0.0596 0.4422,0.1112 0.5398,0.1555 0.1419,0.0659 0.2469,0.1487 0.3145,0.2487 0.0676,0.1004 0.101,0.2162 0.101,0.3467 0,0.13 -0.0369,0.2521 -0.1113,0.3667 -0.0743,0.1147 -0.181,0.2038 -0.3201,0.268 -0.139,0.0635 -0.2957,0.0953 -0.4694,0.0953 -0.2208,0 -0.4059,-0.0318 -0.5546,-0.0965 -0.1493,-0.0641 -0.2662,-0.1605 -0.3514,-0.29 -0.0846,-0.1289 -0.1294,-0.2753 -0.1334,-0.4382zm2.5206 -0.1562l-0.2413 0.2044 0 -0.2775 0.2413 -0.2061 0 -1.2193 0.3224 0 0 0.9446 0.5522 -0.4672 0 0.2776 -0.5522 0.4671 0 0.9281 1.2108 0 0 0.2878 -1.5332 0 0 -0.9395zm1.9784 -0.2479c0,-0.4048 0.1084,-0.7216 0.3258,-0.9503 0.2174,-0.2287 0.4978,-0.3434 0.8418,-0.3434 0.2248,0 0.428,0.0539 0.6085,0.1612 0.1805,0.1078 0.3185,0.2577 0.4132,0.4501 0.0948,0.1919 0.1419,0.4104 0.1419,0.6539 0,0.2475 -0.0494,0.4689 -0.1492,0.6636 -0.0999,0.1953 -0.2413,0.3429 -0.4241,0.4433 -0.1833,0.1005 -0.3803,0.1504 -0.592,0.1504 -0.2299,0 -0.4348,-0.055 -0.6154,-0.1662 -0.181,-0.1108 -0.3178,-0.2623 -0.4109,-0.4541 -0.0931,-0.1914 -0.1396,-0.3946 -0.1396,-0.6085zm0.3326 0.005c0,0.2941 0.0789,0.5251 0.2367,0.6943 0.1583,0.1691 0.3564,0.2536 0.5949,0.2536 0.2429,0 0.4428,-0.0851 0.5994,-0.2559 0.1567,-0.1709 0.2356,-0.4133 0.2356,-0.7271 0,-0.1982 -0.0341,-0.3713 -0.1011,-0.5194 -0.0669,-0.1482 -0.1652,-0.2629 -0.294,-0.3446 -0.1294,-0.0812 -0.2742,-0.1221 -0.4348,-0.1221 -0.2288,0 -0.4252,0.0783 -0.5898,0.2356 -0.1646,0.1567 -0.2469,0.4189 -0.2469,0.7856zm2.5722 1.1824l0 -2.438 0.3308 0 1.2807 1.9141 0 -1.9141 0.3093 0 0 2.438 -0.3309 0 -1.2806 -1.9157 0 1.9157 -0.3093 0zm0.6884 -2.5879l0.2215 -0.4653 0.3922 0 -0.3656 0.4653 -0.2481 0zm3.6745 1.7331l0.323 0.0817c-0.0676,0.2645 -0.1896,0.4666 -0.365,0.6062 -0.1759,0.1391 -0.3905,0.2083 -0.6448,0.2083 -0.2628,0 -0.4763,-0.0533 -0.6409,-0.16 -0.1646,-0.1073 -0.29,-0.2623 -0.3758,-0.4649 -0.0856,-0.2032 -0.1288,-0.4212 -0.1288,-0.654 0,-0.2536 0.0482,-0.4751 0.1453,-0.664 0.0971,-0.189 0.235,-0.3327 0.4144,-0.4309 0.1788,-0.0982 0.3758,-0.147 0.5909,-0.147 0.2441,0 0.449,0.0618 0.6153,0.1861 0.1663,0.1243 0.2821,0.2987 0.3474,0.524l-0.3173 0.0749c-0.0568,-0.1776 -0.1385,-0.3065 -0.2463,-0.3877 -0.1074,-0.0812 -0.2424,-0.1215 -0.4059,-0.1215 -0.1873,0 -0.3435,0.0449 -0.4694,0.1346 -0.1261,0.0903 -0.2146,0.2105 -0.2652,0.3621 -0.051,0.151 -0.0765,0.3071 -0.0765,0.4678 0,0.2077 0.03,0.3882 0.0902,0.5432 0.0607,0.1544 0.1544,0.2702 0.2821,0.3469 0.1277,0.0765 0.2656,0.1145 0.4144,0.1145 0.1805,0 0.3332,-0.0521 0.4586,-0.156 0.1254,-0.1044 0.2101,-0.2594 0.2543,-0.4643zm0.6132 0.8548l0.9366 -2.438 0.3474 0 0.9979 2.438 -0.3678 0 -0.2844 -0.7385 -1.0194 0 -0.2674 0.7385 -0.3429 0zm0.7034 -1.0013l0.827 0 -0.2549 -0.6749c-0.0772,-0.2049 -0.135,-0.3735 -0.1725,-0.5058 -0.0312,0.1567 -0.075,0.3117 -0.1317,0.466l-0.2679 0.7147z"/>
   <path id="_542610032" class="fil0" d="M-0.0037 8.261l0 -8.2109 1.5892 0 0 3.2357 3.1104 0 0 -3.2357 1.5862 0 0 8.2109 -1.5862 0 0 -3.5872 -3.1104 0 0 3.5872 -1.5892 0zm7.8215 0l0 -8.2109 5.8286 0 0 1.3909 -4.2426 0 0 1.8185 3.9482 0 0 1.3821 -3.9482 0 0 2.2373 4.3911 0 0 1.3821 -5.9771 0zm8.8634 0l-1.8719 -8.2109 1.6169 0 1.191 5.6369 1.4347 -5.6369 1.8803 0 1.3789 5.7306 1.2077 -5.7306 1.5999 0 -1.911 8.2109 -1.6842 0 -1.558 -6.1348 -1.5609 6.1348 -1.7234 0zm15.6946 0l-1.7259 0 -0.6811 -1.8623 -3.1442 0 -0.6472 1.8623 -1.6841 0 3.0627 -8.2109 1.673 0 3.1468 8.2109zm-2.9227 -3.2504l-1.0759 -3.0454 -1.0676 3.0454 2.1435 0zm3.8559 3.2504l0 -8.2109 1.5942 0 0 6.8288 3.94 0 0 1.3821 -5.5342 0zm6.5531 0l0 -8.2109 5.6982 0 0 1.3909 -4.1123 0 0 1.8185 3.818 0 0 1.3821 -3.818 0 0 2.2373 4.2609 0 0 1.3821 -5.8468 0zm6.7332 -0.0001l2.6847 -4.2813 -2.4297 -3.9297 1.8552 0 1.5692 2.6356 1.5414 -2.6356 1.841 0 -2.4407 3.9912 2.6844 4.2198 -1.911 0 -1.7402 -2.8405 -1.7485 2.8405 -1.9058 0z"/>
   <g>
    <path id="_542609912" class="fil1" d="M59.451 0.1102c2.2342,0 4.0453,1.8111 4.0453,4.0453 0,2.2342 -1.8111,4.0453 -4.0453,4.0453 -2.2342,0 -4.0453,-1.8111 -4.0453,-4.0453 0,-2.2342 1.8111,-4.0453 4.0453,-4.0453zm0 0.343c2.0447,0 3.7024,1.6576 3.7024,3.7023 0,2.0447 -1.6577,3.7024 -3.7024,3.7024 -2.0447,0 -3.7023,-1.6577 -3.7023,-3.7024 0,-2.0447 1.6576,-3.7023 3.7023,-3.7023z"/>
    <path id="_542624960" class="fil1" d="M59.451 0.9181c1.7879,0 3.2374,1.4495 3.2374,3.2374 0,1.7879 -1.4495,3.2374 -3.2374,3.2374 -1.7879,0 -3.2374,-1.4495 -3.2374,-3.2374 0,-1.7879 1.4495,-3.2374 3.2374,-3.2374zm0 0.3286c1.6065,0 2.9088,1.3024 2.9088,2.9088 0,1.6065 -1.3023,2.9088 -2.9088,2.9088 -1.6064,0 -2.9088,-1.3023 -2.9088,-2.9088 0,-1.6064 1.3024,-2.9088 2.9088,-2.9088z"/>
    <path id="_542625392" class="fil1" d="M59.451 1.7303c1.3395,0 2.4252,1.0857 2.4252,2.4252 0,1.3395 -1.0857,2.4252 -2.4252,2.4252 -1.3395,0 -2.4252,-1.0857 -2.4252,-2.4252 0,-1.3395 1.0857,-2.4252 2.4252,-2.4252zm0 0.3042c1.1713,0 2.121,0.9497 2.121,2.121 0,1.1713 -0.9497,2.121 -2.121,2.121 -1.1713,0 -2.121,-0.9497 -2.121,-2.121 0,-1.1713 0.9497,-2.121 2.121,-2.121z"/>
    <path id="_542625440" class="fil1" d="M59.451 2.4984c0.9152,0 1.6571,0.7419 1.6571,1.6571 0,0.9152 -0.7419,1.6571 -1.6571,1.6571 -0.9152,0 -1.6571,-0.7419 -1.6571,-1.6571 0,-0.9152 0.7419,-1.6571 1.6571,-1.6571z"/>
   </g>
  </g>
 </g>
</svg>
