<?xml version="1.0" encoding="UTF-8"?>
<!DOCTYPE svg PUBLIC "-//W3C//DTD SVG 1.1//EN" "http://www.w3.org/Graphics/SVG/1.1/DTD/svg11.dtd">
<!-- Creator: CorelDRAW X5 -->
<svg xmlns="http://www.w3.org/2000/svg" xml:space="preserve" width="200px" height="59px" style="shape-rendering:geometricPrecision; text-rendering:geometricPrecision; image-rendering:optimizeQuality; fill-rule:evenodd; clip-rule:evenodd"
viewBox="0 0 200 58.9989"
 xmlns:xlink="http://www.w3.org/1999/xlink">
 <defs>
  <style type="text/css">
   <![CDATA[
    .fil4 {fill:#B25A2D}
    .fil5 {fill:#C9672A}
    .fil3 {fill:#FEFEFE}
    .fil1 {fill:#990000}
    .fil2 {fill:#222D4E;fill-rule:nonzero}
    .fil0 {fill:url(#id2)}
   ]]>
  </style>
   <mask id="id0">
  <linearGradient id="id1" gradientUnits="userSpaceOnUse" x1="178.486" y1="26.673" x2="190.869" y2="23.6707">
   <stop offset="0" style="stop-opacity:1; stop-color:white"/>
   <stop offset="1" style="stop-opacity:0; stop-color:white"/>
  </linearGradient>
    <rect style="fill:url(#id1)" x="169.327" y="8.81936" width="30.703" height="32.705"/>
   </mask>
  <radialGradient id="id2" gradientUnits="userSpaceOnUse" cx="189.839" cy="18.9698" r="150.287" fx="189.839" fy="18.9698">
   <stop offset="0" style="stop-color:#EF7F1A"/>
   <stop offset="0.341176" style="stop-color:#E31E24"/>
   <stop offset="1" style="stop-color:#E31E24"/>
  </radialGradient>
 </defs>
 <g id="Warstwa_x0020_1">
  <metadata id="CorelCorpID_0Corel-Layer"/>
  <path class="fil0" d="M189.387 11.5501c-1.21418,-0.392129 -2.12482,-1.35474 -2.43427,-2.57482l-0.03189 -0.126379 -4.48232 0 -0.03189 0.12756c-0.302365,1.22127 -1.18938,2.17679 -2.37403,2.55356 -6.4347,2.04805 -10.8237,8.20518 -10.6725,14.9718 0.178348,8.02802 6.58824,14.6068 14.5915,14.9765 0.242128,0.0118111 0.484256,0.0165356 0.725203,0.0165356 3.96972,0 7.70321,-1.49174 10.5816,-4.24492 3.0579,-2.92443 4.74216,-6.8658 4.74216,-11.0989 0,-6.68273 -4.26499,-12.5505 -10.6135,-14.6009z"/>
  <path class="fil1" style="mask:url(#id0)" d="M189.387 11.5501c-1.21418,-0.392129 -2.12482,-1.35474 -2.43427,-2.57482l-0.03189 -0.126379 -4.48232 0 -0.03189 0.12756c-0.301183,1.22245 -1.18938,2.17679 -2.37403,2.55356 -6.4347,2.04805 -10.8237,8.204 -10.6725,14.9718 0.179529,8.02802 6.58824,14.6068 14.5915,14.9765 0.242128,0.0118111 0.484256,0.0165356 0.725203,0.0165356 3.96972,0 7.70321,-1.49293 10.5816,-4.24492 3.05908,-2.92443 4.74216,-6.8658 4.74216,-11.0989 0,-6.68273 -4.26499,-12.5505 -10.6135,-14.6009z"/>
  <path class="fil2" d="M74.8778 58.8666l0 -7.45281 5.38705 0 0 0.879928 -4.402 0 0 2.28191 4.12326 0 0 0.874023 -4.12326 0 0 2.53703 4.57563 0 0 0.879928 -5.56067 0zm7.40439 0l0 -7.45281 1.01103 0 3.9142 5.85123 0 -5.85123 0.94607 0 0 7.45281 -1.01103 0 -3.91539 -5.85595 0 5.85595 -0.944889 0zm8.04101 0l0 -7.45281 5.38705 0 0 0.879928 -4.402 0 0 2.28191 4.12208 0 0 0.874023 -4.12208 0 0 2.53703 4.57563 0 0 0.879928 -5.56067 0zm7.42919 0l0 -7.45281 3.30357 0c0.664966,0 1.17048,0.0685045 1.51537,0.20197 0.344885,0.133466 0.621265,0.369688 0.82914,0.707486 0.206695,0.34016 0.309451,0.714573 0.309451,1.12442 0,0.529138 -0.17008,0.973236 -0.513784,1.33584 -0.342522,0.362601 -0.87166,0.594099 -1.58623,0.692131 0.262207,0.125198 0.459452,0.248033 0.59528,0.37205 0.288191,0.263388 0.561028,0.59528 0.81851,0.989772l1.29686 2.02915 -1.24135 0 -0.985047 -1.5508c-0.288191,-0.44646 -0.525595,-0.790164 -0.713391,-1.02639 -0.185435,-0.237403 -0.351971,-0.40394 -0.49961,-0.497248 -0.147639,-0.09567 -0.296459,-0.161812 -0.448822,-0.199608 -0.113387,-0.0224411 -0.295278,-0.0354333 -0.550398,-0.0354333l-1.14332 0 0 3.30947 -0.986228 0zm0.986228 -4.16224l2.1201 0c0.450004,0 0.803156,-0.0472445 1.05709,-0.140552 0.25512,-0.0944889 0.447641,-0.243309 0.578745,-0.447641 0.132285,-0.205513 0.198427,-0.427562 0.198427,-0.668509 0,-0.351971 -0.12756,-0.642525 -0.383861,-0.869298 -0.25512,-0.226773 -0.65906,-0.34016 -1.213,-0.34016l-2.3575 0 0 2.46616zm10.4954 1.23781l0 -0.87166 3.15711 -0.00590556 0 2.7638c-0.484256,0.387405 -0.983866,0.676777 -1.50001,0.872842 -0.514965,0.194883 -1.0441,0.291735 -1.58505,0.291735 -0.732289,0 -1.39844,-0.155907 -1.99608,-0.470082 -0.598824,-0.312995 -1.04883,-0.766541 -1.35474,-1.35828 -0.305908,-0.594099 -0.458271,-1.2567 -0.458271,-1.98899 0,-0.725203 0.152363,-1.40198 0.455909,-2.03033 0.302365,-0.629533 0.739376,-1.09607 1.30867,-1.40198 0.569296,-0.303546 1.22481,-0.455909 1.96773,-0.455909 0.537406,0 1.0252,0.0874023 1.46104,0.262207 0.434649,0.173623 0.777171,0.416932 1.02284,0.728746 0.249215,0.311813 0.43583,0.718116 0.565752,1.22009l-0.889377 0.24449c-0.113387,-0.380318 -0.251577,-0.677958 -0.416932,-0.895283 -0.166537,-0.217325 -0.40394,-0.390948 -0.713391,-0.52087 -0.305908,-0.129922 -0.649611,-0.196065 -1.0252,-0.196065 -0.450004,0 -0.840952,0.0696856 -1.1693,0.206695 -0.32953,0.137009 -0.592918,0.317719 -0.796069,0.540949 -0.200789,0.224411 -0.357877,0.468901 -0.470082,0.738195 -0.188978,0.459452 -0.284648,0.959063 -0.284648,1.49883 0,0.663785 0.114568,1.21891 0.343703,1.66655 0.229136,0.448822 0.562209,0.779534 0.99922,0.996858 0.437011,0.216143 0.900007,0.325987 1.39135,0.325987 0.428744,0 0.845676,-0.0838589 1.2508,-0.248033 0.407484,-0.162993 0.715754,-0.338979 0.92481,-0.525595l0 -1.38899 -2.18978 0zm5.27012 2.92443l0 -7.45281 0.986228 0 0 7.45281 -0.986228 0zm2.39648 0l2.86301 -7.45281 1.06182 0 3.05081 7.45281 -1.12442 0 -0.869298 -2.2571 -3.11577 0 -0.817329 2.2571 -1.04883 0zm2.1508 -3.06144l2.52758 0 -0.779534 -2.06222c-0.236222,-0.62717 -0.412208,-1.14213 -0.526776,-1.54608 -0.09567,0.47835 -0.229136,0.953157 -0.402759,1.42442l-0.81851 2.18388zm10.2272 3.06144l0 -0.91418 3.81735 -4.77405c0.272837,-0.34016 0.529138,-0.634257 0.773628,-0.884653l-4.15869 0 0 -0.879928 5.33744 0 0 0.879928 -4.1835 5.16854 -0.452366 0.524414 4.7587 0 0 0.879928 -5.89257 0zm7.46699 0l0 -7.45281 5.38705 0 0 0.879928 -4.402 0 0 2.28191 4.12326 0 0 0.874023 -4.12326 0 0 2.53703 4.57563 0 0 0.879928 -5.56067 0zm12.3721 -2.39411l0.930716 -0.0826778c0.0437011,0.373231 0.145277,0.679139 0.307089,0.918905 0.161812,0.238585 0.411027,0.431106 0.750006,0.578745 0.337798,0.147639 0.719297,0.220868 1.14332,0.220868 0.375594,0 0.707486,-0.0555122 0.995677,-0.166537 0.288191,-0.113387 0.503154,-0.26575 0.643706,-0.460634 0.140552,-0.196065 0.211419,-0.407484 0.211419,-0.6378 0,-0.23386 -0.0673234,-0.437011 -0.204332,-0.612997 -0.135828,-0.174805 -0.359058,-0.321262 -0.66969,-0.438192 -0.20197,-0.0779534 -0.642525,-0.199608 -1.32757,-0.364964 -0.683864,-0.164175 -1.16458,-0.3189 -1.43859,-0.464177 -0.355515,-0.186616 -0.621265,-0.418114 -0.796069,-0.694494 -0.173623,-0.27638 -0.261026,-0.58465 -0.261026,-0.928354 0,-0.374412 0.1063,-0.727565 0.320081,-1.05355 0.2126,-0.327168 0.525595,-0.575201 0.93544,-0.745281 0.411027,-0.168899 0.865755,-0.253939 1.36655,-0.253939 0.553941,0 1.03938,0.0885834 1.4634,0.268112 0.420476,0.175986 0.745281,0.438192 0.973236,0.783077 0.225592,0.346066 0.348428,0.738195 0.366145,1.17521l-0.94607 0.0708667c-0.0519689,-0.470082 -0.22323,-0.827959 -0.517327,-1.06654 -0.292916,-0.240947 -0.725203,-0.36142 -1.29804,-0.36142 -0.596461,0 -1.02993,0.109843 -1.30395,0.328349 -0.272837,0.218506 -0.409846,0.481894 -0.409846,0.788983 0,0.269293 0.0968512,0.48898 0.289372,0.661423 0.19134,0.173623 0.686226,0.35079 1.48702,0.530319 0.801975,0.183072 1.35237,0.34016 1.65001,0.475988 0.433468,0.200789 0.75473,0.454728 0.961425,0.759455 0.206695,0.307089 0.309451,0.661423 0.309451,1.06064 0,0.396854 -0.113387,0.770085 -0.34016,1.12087 -0.227955,0.349609 -0.553941,0.622446 -0.979142,0.81851 -0.4252,0.194883 -0.90355,0.291735 -1.43505,0.291735 -0.674415,0 -1.24017,-0.0968512 -1.6949,-0.295278 -0.455909,-0.196065 -0.813786,-0.490161 -1.07363,-0.885834 -0.258663,-0.394491 -0.395672,-0.842133 -0.408665,-1.33938zm7.70557 -0.47835l-0.738195 0.624808 0 -0.848038 0.738195 -0.629533 0 -3.72759 0.985047 0 0 2.88782 1.68781 -1.42796 0 0.848038 -1.68781 1.42796 0 2.83703 3.70042 0 0 0.879928 -4.68547 0 0 -2.87246zm6.04611 -0.757093c0,-1.23781 0.331892,-2.20632 0.996858,-2.90553 0.663785,-0.698037 1.52127,-1.04883 2.57246,-1.04883 0.687407,0 1.30867,0.164175 1.86025,0.492524 0.551579,0.32953 0.973236,0.787801 1.26261,1.376 0.290553,0.585831 0.434649,1.25434 0.434649,1.99844 0,0.757093 -0.151182,1.43269 -0.45709,2.02797 -0.304727,0.597643 -0.737014,1.04883 -1.29568,1.35592 -0.561028,0.307089 -1.16221,0.459452 -1.80946,0.459452 -0.702761,0 -1.32875,-0.167718 -1.88151,-0.507878 -0.55276,-0.338979 -0.970874,-0.801975 -1.25552,-1.38899 -0.284648,-0.58465 -0.427562,-1.20592 -0.427562,-1.85907zm1.01694 0.0153545c0,0.898826 0.242128,1.60513 0.724021,2.12128 0.484256,0.517327 1.08898,0.77599 1.81773,0.77599 0.742919,0 1.35355,-0.259845 1.83309,-0.781896 0.47835,-0.523232 0.719297,-1.26379 0.719297,-2.22285 0,-0.60591 -0.103938,-1.13505 -0.30827,-1.58741 -0.205513,-0.453547 -0.505516,-0.803156 -0.898826,-1.05355 -0.395672,-0.248033 -0.838589,-0.373231 -1.32875,-0.373231 -0.699218,0 -1.3004,0.239766 -1.80356,0.720478 -0.503154,0.47835 -0.75473,1.28033 -0.75473,2.4012zm7.86266 3.6142l0 -7.45281 1.01103 0 3.9142 5.85123 0 -5.85123 0.94607 0 0 7.45281 -1.01103 0 -3.91539 -5.85595 0 5.85595 -0.944889 0zm2.10474 -7.91109l0.676777 -1.42206 1.19883 0 -1.11733 1.42206 -0.758274 0zm11.2312 5.29847l0.987409 0.249215c-0.206695,0.80788 -0.579926,1.4256 -1.11615,1.85316 -0.537406,0.4252 -1.19292,0.636619 -1.97009,0.636619 -0.804337,0 -1.45631,-0.162993 -1.95946,-0.48898 -0.503154,-0.328349 -0.887015,-0.801975 -1.14804,-1.42088 -0.262207,-0.621265 -0.394491,-1.28741 -0.394491,-1.99962 0,-0.774809 0.147639,-1.45159 0.444098,-2.02915 0.296459,-0.577564 0.718116,-1.01694 1.26733,-1.31694 0.545674,-0.301183 1.14804,-0.450004 1.80592,-0.450004 0.745281,0 1.37245,0.188978 1.88033,0.569296 0.509059,0.380318 0.862212,0.912999 1.06182,1.60159l-0.969693 0.229136c-0.173623,-0.543311 -0.422838,-0.936622 -0.753549,-1.18584 -0.327168,-0.248033 -0.740557,-0.370869 -1.24017,-0.370869 -0.572839,0 -1.05001,0.137009 -1.43505,0.411027 -0.385042,0.27638 -0.655517,0.643706 -0.810243,1.1067 -0.155907,0.461815 -0.23386,0.938984 -0.23386,1.43033 0,0.635438 0.0921267,1.18702 0.27638,1.66064 0.185435,0.471264 0.471264,0.825597 0.862212,1.05946 0.389767,0.235041 0.811424,0.35079 1.26615,0.35079 0.551579,0 1.01812,-0.15945 1.40198,-0.477169 0.38268,-0.3189 0.642525,-0.792526 0.777171,-1.41852zm1.87442 2.61262l2.86301 -7.45281 1.06182 0 3.04963 7.45281 -1.12442 0 -0.869298 -2.2571 -3.11577 0 -0.817329 2.2571 -1.04765 0zm2.14962 -3.06144l2.52758 0 -0.778353 -2.06222c-0.236222,-0.62717 -0.413389,-1.14213 -0.527957,-1.54608 -0.0944889,0.47835 -0.229136,0.953157 -0.402759,1.42442l-0.81851 2.18388z"/>
  <path class="fil2" d="M-0.00118111 41.6306l0 -25.0974 4.85791 0 0 9.89063 9.50795 0 0 -9.89063 4.84846 0 0 25.0974 -4.84846 0 0 -10.9643 -9.50795 0 0 10.9643 -4.85791 0zm23.9081 0l0 -25.0974 17.8159 0 0 4.25082 -12.9686 0 0 5.55949 12.0686 0 0 4.22484 -12.0686 0 0 6.83746 13.4222 0 0 4.22484 -18.2694 0zm27.0923 0l-5.7213 -25.0974 4.94177 0 3.64019 17.2301 4.38547 -17.2301 5.74729 0 4.21539 17.5159 3.69097 -17.5159 4.89098 0 -5.84178 25.0974 -5.14847 0 -4.76224 -18.7513 -4.77051 18.7513 -5.26776 0zm47.9732 0l-5.27603 0 -2.0823 -5.69178 -9.61071 0 -1.97836 5.69178 -5.14728 0 9.36149 -25.0974 5.11421 0 9.61897 25.0974zm-8.93393 -9.93551l-3.2894 -9.30834 -3.26341 9.30834 6.55281 0zm11.7851 9.93551l0 -25.0974 4.87327 0 0 20.8726 12.0438 0 0 4.22484 -16.9171 0zm20.0317 0l0 -25.0974 17.4167 0 0 4.25082 -12.5694 0 0 5.55949 11.6706 0 0 4.22484 -11.6706 0 0 6.83746 13.0241 0 0 4.22484 -17.8714 0zm20.5809 0l8.20636 -13.0867 -7.42683 -12.0107 5.67052 0 4.79649 8.05518 4.71145 -8.05518 5.62682 0 -7.4599 12.1985 8.20518 12.8989 -5.84178 0 -5.31855 -8.68235 -5.34453 8.68235 -5.82524 0z"/>
  <path class="fil3" d="M172.102 25.8911c0.124017,0 0.245671,-0.0472445 0.34016,-0.140552l6.11107 -6.12052 5.87012 5.87957c0.187797,0.187797 0.492524,0.187797 0.68032,0l5.74965 -5.7591 5.87131 5.87957c0.187797,0.187797 0.492524,0.187797 0.68032,0l2.32207 -2.32679c-0.0696856,-0.374412 -0.152363,-0.745281 -0.249215,-1.11143l-2.41301 2.41655 -5.87012 -5.87957c-0.188978,-0.186616 -0.492524,-0.186616 -0.68032,0.00118111l-5.75083 5.75792 -5.87012 -5.87839c-0.0897645,-0.0909456 -0.2126,-0.141733 -0.34016,-0.141733 -0.12756,0 -0.249215,0.0507878 -0.34016,0.141733l-6.11107 6.11934 -2.27482 -2.27836c-0.0933078,0.369688 -0.172442,0.745281 -0.237403,1.12442l2.17206 2.17561c0.0944889,0.0933078 0.217325,0.140552 0.34016,0.140552z"/>
  <path class="fil3" d="M172.102 30.064c0.124017,0 0.245671,-0.0472445 0.34016,-0.140552l6.11107 -6.12052 5.87012 5.87957c0.187797,0.187797 0.492524,0.187797 0.68032,0l5.74965 -5.7591 5.87131 5.87957c0.187797,0.187797 0.492524,0.187797 0.68032,0l2.55356 -2.55711c0.0248033,-0.362601 0.0413389,-0.727565 0.0413389,-1.09489 0,-0.100394 -0.00944889,-0.198427 -0.0118111,-0.29764l-2.92325 2.92798 -5.87012 -5.87839c-0.188978,-0.187797 -0.492524,-0.187797 -0.68032,0l-5.75083 5.75792 -5.87012 -5.87839c-0.0897645,-0.0909456 -0.2126,-0.140552 -0.34016,-0.140552 -0.12756,0 -0.249215,0.0496067 -0.34016,0.140552l-6.11107 6.11934 -2.73664 -2.74018c0,0.113387 -0.00826778,0.225592 -0.00590556,0.34016 0.00826778,0.363782 0.0330711,0.724021 0.0661423,1.0819l2.33624 2.33978c0.0944889,0.0933078 0.217325,0.140552 0.34016,0.140552z"/>
  <path class="fil3" d="M191.195 27.0758c-0.188978,-0.188978 -0.492524,-0.188978 -0.68032,0l-5.75083 5.75792 -5.87012 -5.87839c-0.0897645,-0.0897645 -0.2126,-0.141733 -0.34016,-0.141733 -0.12756,0 -0.249215,0.0519689 -0.34016,0.141733l-6.11107 6.11934 -1.89687 -1.89923c0.301183,0.864574 0.676777,1.69608 1.12087,2.48388l0.43583 0.437011c0.0944889,0.0933078 0.217325,0.140552 0.34016,0.140552 0.124017,0 0.245671,-0.0472445 0.34016,-0.140552l6.11107 -6.12052 5.87012 5.87957c0.18071,0.18071 0.49961,0.18071 0.68032,0l5.74965 -5.7591 5.87131 5.87957c0.18071,0.179529 0.49961,0.18071 0.68032,0l1.01576 -1.01812c0.36142,-0.728746 0.662604,-1.48584 0.902369,-2.26537l-2.25829 2.26183 -5.87012 -5.87839z"/>
  <rect class="fil4" x="183.877" y="1.72211" width="1.40412" height="5.78272" rx="0.70158" ry="0.70158"/>
  <path class="fil5" d="M186.046 9.70165l-2.73782 0c-0.890558,0 -1.6134,-0.724021 -1.6134,-1.61694l0 -0.677958c0,-0.891739 0.721659,-1.61576 1.6134,-1.61576l2.73782 0c0.891739,0 1.61458,0.724021 1.61458,1.61576l0 0.677958c0,0.89292 -0.72284,1.61694 -1.61458,1.61694z"/>
  <path class="fil4" d="M184.545 9.70165l-1.23662 0c-0.173623,0 -0.341341,-0.0283467 -0.49961,-0.0791345 -0.00118111,0 -0.00236222,-0.00118111 -0.00472445,-0.00118111 0.00354333,-0.01063 0.00826778,-0.0224411 0.0118111,-0.0330711 -0.653155,-0.243309 -1.12087,-0.868117 -1.12087,-1.60631l0 -0.471264c0,-0.675596 0.392129,-1.25434 0.957882,-1.53545l0 -0.0460634c0.200789,-0.0885834 0.422838,-0.13819 0.655517,-0.13819l1.23662 0 0 3.91066z"/>
 </g>
</svg>
