<?xml version="1.0" encoding="utf-8"?>
<!-- Generator: Adobe Illustrator 16.0.0, SVG Export Plug-In . SVG Version: 6.00 Build 0)  -->
<!DOCTYPE svg PUBLIC "-//W3C//DTD SVG 1.1//EN" "http://www.w3.org/Graphics/SVG/1.1/DTD/svg11.dtd">
<svg version="1.1" xmlns="http://www.w3.org/2000/svg" xmlns:xlink="http://www.w3.org/1999/xlink" x="0px" y="0px" width="623px"
	 height="623px" viewBox="-131.03 -14.36 623 623" enable-background="new -131.03 -14.36 623 623" xml:space="preserve">
<g id="Tryb_izolacji">
	<circle fill="#063465" cx="180.47" cy="297.14" r="311.5"/>
	<g id="Layer_32" display="none">
		<path display="inline" fill="#F9F7F7" stroke="#F9F7F7" stroke-width="8.5039" stroke-miterlimit="10" d="M302.609,145.865h-3.748
			v-26.309c0-7.266-5.891-13.155-13.154-13.155h-13.154c-7.266,0-13.155,5.89-13.155,13.155v26.309H108.121v-26.309
			c0-7.266-5.889-13.155-13.154-13.155H81.813c-7.265,0-13.154,5.89-13.154,13.155v26.309H58.332
			c-9.457,0.701-16.585,8.887-15.983,18.35v305.314c-0.603,9.463,6.526,17.648,15.983,18.35h244.277
			c9.457-0.701,16.586-8.887,15.982-18.35V164.215C319.195,154.752,312.066,146.567,302.609,145.865z M272.552,119.557h13.154
			v39.463h-13.154V119.557z M81.813,119.557h13.154v39.463H81.813V119.557z M305.437,469.529c0,3.092-1.709,5.195-2.828,5.195
			H58.332c-1.118,0-2.828-2.104-2.828-5.195V164.215c0-3.091,1.71-5.195,2.828-5.195h10.326c0,7.265,5.889,13.154,13.154,13.154
			h13.154c7.265,0,13.154-5.89,13.154-13.154h151.276c0,7.265,5.89,13.154,13.155,13.154h13.154c7.264,0,13.154-5.89,13.154-13.154
			h3.748c1.119,0,2.828,2.104,2.828,5.195V469.529z"/>
		
			<rect x="81.813" y="231.368" display="inline" fill="#F9F7F7" stroke="#F9F7F7" stroke-width="8.5039" stroke-miterlimit="10" width="197.316" height="13.154"/>
		
			<rect x="81.813" y="270.832" display="inline" fill="#F9F7F7" stroke="#F9F7F7" stroke-width="8.5039" stroke-miterlimit="10" width="197.316" height="13.154"/>
		
			<rect x="81.813" y="310.295" display="inline" fill="#F9F7F7" stroke="#F9F7F7" stroke-width="8.5039" stroke-miterlimit="10" width="197.316" height="13.154"/>
		
			<rect x="81.813" y="349.758" display="inline" fill="#F9F7F7" stroke="#F9F7F7" stroke-width="8.5039" stroke-miterlimit="10" width="197.316" height="13.154"/>
	</g>
	
		<radialGradient id="SVGID_1_" cx="187.0552" cy="319.2214" r="287.7079" fx="148.9314" fy="336.9805" gradientUnits="userSpaceOnUse">
		<stop  offset="0.81" style="stop-color:#063465"/>
		<stop  offset="0.8525" style="stop-color:#06315E"/>
		<stop  offset="0.9145" style="stop-color:#06284B"/>
		<stop  offset="0.9881" style="stop-color:#061B2B"/>
		<stop  offset="1" style="stop-color:#061825"/>
	</radialGradient>
	<circle fill="url(#SVGID_1_)" cx="180.47" cy="297.14" r="269.502"/>
</g>
<g id="Warstwa_2" display="none">
	<g display="inline">
		<path fill="#FFFFFF" stroke="#063465" stroke-width="8.5039" stroke-miterlimit="10" d="M355.863,165.596
			c0-9.686-7.854-17.539-17.539-17.539H22.617c-9.687,0-17.539,7.854-17.539,17.539c0,9.688,7.853,17.539,17.539,17.539v228.01
			c-9.687,0-17.539,7.852-17.539,17.539s7.853,17.539,17.539,17.539H138.2h84.54h115.584c9.686,0,17.539-7.852,17.539-17.539
			s-7.854-17.539-17.539-17.539v-228.01C348.009,183.135,355.863,175.284,355.863,165.596z M303.244,411.145H57.695v-228.01h245.549
			V411.145z"/>
		<path fill="#FFFFFF" stroke="#063465" stroke-width="8.5039" stroke-miterlimit="10" d="M92.773,323.45h70.157
			c9.687,0,17.539-7.854,17.539-17.539v-70.158c0-9.686-7.853-17.539-17.539-17.539H92.773c-9.686,0-17.539,7.854-17.539,17.539
			v70.158C75.234,315.596,83.087,323.45,92.773,323.45z M110.312,253.292h35.078v35.08h-35.078V253.292z"/>
		<path fill="#FFFFFF" stroke="#063465" stroke-width="8.5039" stroke-miterlimit="10" d="M215.547,253.292h52.618
			c9.688,0,17.539-7.852,17.539-17.539c0-9.686-7.852-17.539-17.539-17.539h-52.618c-9.687,0-17.539,7.854-17.539,17.539
			C198.008,245.44,205.861,253.292,215.547,253.292z"/>
		<path fill="#FFFFFF" stroke="#063465" stroke-width="8.5039" stroke-miterlimit="10" d="M215.547,323.45h52.618
			c9.688,0,17.539-7.854,17.539-17.539c0-9.688-7.852-17.539-17.539-17.539h-52.618c-9.687,0-17.539,7.852-17.539,17.539
			C198.008,315.596,205.861,323.45,215.547,323.45z"/>
		<path fill="#FFFFFF" stroke="#063465" stroke-width="8.5039" stroke-miterlimit="10" d="M92.773,393.606h175.393
			c9.688,0,17.539-7.854,17.539-17.539c0-9.688-7.852-17.539-17.539-17.539H92.773c-9.686,0-17.539,7.852-17.539,17.539
			C75.234,385.753,83.087,393.606,92.773,393.606z"/>
	</g>
</g>
<g id="Warstwa_3" display="none">
	<g display="inline">
		<path fill="#FFFFFF" d="M180.471,90.616c-114.115,0-206.524,92.41-206.524,206.524c0,114.115,92.738,206.523,206.524,206.523
			c113.785,0,206.523-92.738,206.523-206.523C386.995,183.355,294.586,90.616,180.471,90.616z M180.471,115.61
			c44.725,0,85.504,16.114,117.074,43.081l-49.986,49.658c-18.746-14.142-42.096-22.691-67.088-22.691
			c-24.994,0-48.672,8.55-67.088,22.691l-49.986-49.658C94.967,132.053,135.746,115.61,180.471,115.61z M266.631,297.141
			c0,47.355-38.477,86.162-86.16,86.162c-47.686,0-86.162-38.807-86.162-86.162c0-47.356,38.806-86.161,86.162-86.161
			C227.827,210.98,266.631,249.784,266.631,297.141z M-1.06,297.141c0-46.369,17.43-88.792,46.369-120.691l49.658,49.657
			c-16.114,19.403-25.651,44.067-25.651,71.034c0,25.322,8.551,48.671,22.691,67.087l-49.986,49.986
			C15.383,382.644-1.06,341.865-1.06,297.141z M180.471,478.672c-46.369,0-88.793-17.43-120.691-46.369l49.657-49.658
			c19.403,16.113,44.067,25.65,71.034,25.65s51.959-9.537,71.033-25.65l49.658,49.658
			C269.264,460.914,226.84,478.672,180.471,478.672z M318.92,414.215l-49.656-49.986c14.141-18.746,22.691-42.094,22.691-67.087
			c0-26.967-9.537-51.96-25.652-71.034l49.658-49.657c28.611,32.228,46.369,74.322,46.369,120.691
			C362.002,341.865,345.559,382.644,318.92,414.215z"/>
	</g>
</g>
<g id="Warstwa_4" display="none">
	<g id="Layer_32_1_" display="inline">
		<path fill="#F9F7F7" stroke="#F9F7F7" stroke-width="8.5039" stroke-miterlimit="10" d="M302.609,145.865h-3.748v-26.309
			c0-7.266-5.891-13.155-13.154-13.155h-13.154c-7.266,0-13.156,5.89-13.156,13.155v26.309H108.121v-26.309
			c0-7.266-5.889-13.155-13.154-13.155H81.812c-7.265,0-13.154,5.89-13.154,13.155v26.309H58.332
			c-9.457,0.701-16.585,8.887-15.982,18.35v305.314c-0.603,9.463,6.525,17.648,15.982,18.35h244.277
			c9.457-0.701,16.586-8.887,15.982-18.35V164.215C319.195,154.752,312.066,146.567,302.609,145.865z M272.552,119.557h13.154
			v39.463h-13.154V119.557z M81.812,119.557h13.154v39.463H81.812V119.557z M305.437,469.529c0,3.092-1.709,5.195-2.828,5.195
			H58.332c-1.117,0-2.828-2.104-2.828-5.195V164.215c0-3.091,1.711-5.195,2.828-5.195h10.326c0,7.265,5.89,13.154,13.154,13.154
			h13.154c7.266,0,13.154-5.89,13.154-13.154h151.275c0,7.265,5.891,13.154,13.156,13.154h13.154c7.264,0,13.154-5.89,13.154-13.154
			h3.748c1.119,0,2.828,2.104,2.828,5.195V469.529z"/>
		
			<rect x="81.812" y="231.368" fill="#F9F7F7" stroke="#F9F7F7" stroke-width="8.5039" stroke-miterlimit="10" width="197.316" height="13.154"/>
		
			<rect x="81.812" y="270.832" fill="#F9F7F7" stroke="#F9F7F7" stroke-width="8.5039" stroke-miterlimit="10" width="197.316" height="13.154"/>
		
			<rect x="81.812" y="310.295" fill="#F9F7F7" stroke="#F9F7F7" stroke-width="8.5039" stroke-miterlimit="10" width="197.316" height="13.154"/>
		
			<rect x="81.812" y="349.758" fill="#F9F7F7" stroke="#F9F7F7" stroke-width="8.5039" stroke-miterlimit="10" width="197.316" height="13.154"/>
	</g>
</g>
<g id="Warstwa_5" display="none">
	
		<rect x="1.229" y="183.896" display="inline" fill="none" stroke="#F9F7F7" stroke-width="22.6772" stroke-miterlimit="10" width="358.482" height="226.489"/>
	<polygon display="inline" fill="#F9F7F7" points="56.923,361.291 180.47,286.291 304.017,361.291 	"/>
</g>
<g id="Warstwa_6">
</g>
<g id="Warstwa_7">
	<g>
		<path fill="#FFFFFF" d="M29.094,341.681l26.982-3.598c3.096,15.29,8.369,26.309,15.814,33.054
			c7.444,6.746,16.513,10.118,27.208,10.118c12.69,0,23.408-4.396,32.154-13.191c8.744-8.792,13.117-19.687,13.117-32.679
			c0-12.39-4.047-22.609-12.142-30.654c-8.095-8.044-18.389-12.068-30.88-12.068c-5.097,0-11.444,1-19.038,2.998l2.998-23.685
			c1.799,0.202,3.246,0.3,4.347,0.3c11.491,0,21.834-2.998,31.03-8.994c9.193-5.996,13.791-15.238,13.791-27.732
			c0-9.894-3.35-18.086-10.043-24.584c-6.696-6.495-15.342-9.744-25.933-9.744c-10.493,0-19.239,3.298-26.233,9.894
			c-6.996,6.596-11.493,16.489-13.491,29.681L31.792,236c3.298-18.086,10.793-32.103,22.485-42.048
			c11.692-9.942,26.233-14.915,43.622-14.915c11.992,0,23.033,2.574,33.128,7.72c10.093,5.148,17.813,12.168,23.16,21.062
			c5.345,8.896,8.02,18.34,8.02,28.332c0,9.496-2.548,18.138-7.645,25.933s-12.644,13.993-22.635,18.588
			c12.99,2.998,23.085,9.219,30.28,18.664c7.195,9.443,10.793,21.263,10.793,35.451c0,19.188-6.996,35.452-20.986,48.794
			c-13.993,13.341-31.681,20.012-53.065,20.012c-19.288,0-35.302-5.746-48.044-17.239C38.163,374.862,30.893,359.969,29.094,341.681
			z"/>
		<path fill="#FFFFFF" d="M199.683,291.314c0-25.982,2.672-46.894,8.02-62.734c5.345-15.838,13.289-28.055,23.834-36.651
			c10.543-8.594,23.809-12.892,39.799-12.892c11.791,0,22.135,2.375,31.03,7.12c8.894,4.748,16.238,11.594,22.036,20.537
			c5.794,8.945,10.343,19.838,13.641,32.679c3.298,12.842,4.947,30.156,4.947,51.941c0,25.783-2.649,46.597-7.945,62.435
			c-5.298,15.841-13.217,28.083-23.76,36.727c-10.545,8.645-23.86,12.966-39.949,12.966c-21.188,0-37.826-7.593-49.917-22.785
			C206.927,362.368,199.683,332.59,199.683,291.314z M227.415,291.314c0,36.077,4.221,60.088,12.667,72.028
			c8.443,11.943,18.861,17.913,31.254,17.913c12.391,0,22.809-5.996,31.255-17.988c8.444-11.992,12.667-35.977,12.667-71.953
			c0-36.176-4.223-60.209-12.667-72.103c-8.446-11.892-18.962-17.838-31.554-17.838c-12.394,0-22.287,5.247-29.682,15.74
			C232.062,230.506,227.415,255.24,227.415,291.314z"/>
	</g>
</g>
</svg>
