<?xml version="1.0" encoding="utf-8"?>
<!-- Generator: Adobe Illustrator 16.0.0, SVG Export Plug-In . SVG Version: 6.00 Build 0)  -->
<!DOCTYPE svg PUBLIC "-//W3C//DTD SVG 1.1//EN" "http://www.w3.org/Graphics/SVG/1.1/DTD/svg11.dtd">
<svg version="1.1" xmlns="http://www.w3.org/2000/svg" xmlns:xlink="http://www.w3.org/1999/xlink" x="0px" y="0px" width="623px"
	 height="623px" viewBox="-131.03 -14.36 623 623" enable-background="new -131.03 -14.36 623 623" xml:space="preserve">
<g id="Tryb_izolacji">
	<circle fill="#063465" cx="180.47" cy="297.14" r="311.5"/>
	<g id="Layer_32" display="none">
		<path display="inline" fill="#F9F7F7" stroke="#F9F7F7" stroke-width="8.5039" stroke-miterlimit="10" d="M302.609,145.865h-3.748
			v-26.309c0-7.266-5.891-13.155-13.154-13.155h-13.154c-7.266,0-13.155,5.89-13.155,13.155v26.309H108.121v-26.309
			c0-7.266-5.889-13.155-13.154-13.155H81.813c-7.265,0-13.154,5.89-13.154,13.155v26.309H58.332
			c-9.457,0.701-16.585,8.887-15.983,18.35v305.314c-0.603,9.463,6.526,17.648,15.983,18.35h244.277
			c9.457-0.701,16.586-8.887,15.982-18.35V164.215C319.195,154.752,312.066,146.567,302.609,145.865z M272.552,119.557h13.154
			v39.463h-13.154V119.557z M81.813,119.557h13.154v39.463H81.813V119.557z M305.437,469.529c0,3.092-1.709,5.195-2.828,5.195
			H58.332c-1.118,0-2.828-2.104-2.828-5.195V164.215c0-3.091,1.71-5.195,2.828-5.195h10.326c0,7.265,5.889,13.154,13.154,13.154
			h13.154c7.265,0,13.154-5.89,13.154-13.154h151.276c0,7.265,5.89,13.154,13.155,13.154h13.154c7.264,0,13.154-5.89,13.154-13.154
			h3.748c1.119,0,2.828,2.104,2.828,5.195V469.529z"/>
		
			<rect x="81.813" y="231.368" display="inline" fill="#F9F7F7" stroke="#F9F7F7" stroke-width="8.5039" stroke-miterlimit="10" width="197.316" height="13.154"/>
		
			<rect x="81.813" y="270.832" display="inline" fill="#F9F7F7" stroke="#F9F7F7" stroke-width="8.5039" stroke-miterlimit="10" width="197.316" height="13.154"/>
		
			<rect x="81.813" y="310.295" display="inline" fill="#F9F7F7" stroke="#F9F7F7" stroke-width="8.5039" stroke-miterlimit="10" width="197.316" height="13.154"/>
		
			<rect x="81.813" y="349.758" display="inline" fill="#F9F7F7" stroke="#F9F7F7" stroke-width="8.5039" stroke-miterlimit="10" width="197.316" height="13.154"/>
	</g>
	
		<radialGradient id="SVGID_1_" cx="187.0552" cy="319.2214" r="287.7079" fx="148.9314" fy="336.9805" gradientUnits="userSpaceOnUse">
		<stop  offset="0.81" style="stop-color:#063465"/>
		<stop  offset="0.8525" style="stop-color:#06315E"/>
		<stop  offset="0.9145" style="stop-color:#06284B"/>
		<stop  offset="0.9881" style="stop-color:#061B2B"/>
		<stop  offset="1" style="stop-color:#061825"/>
	</radialGradient>
	<circle fill="url(#SVGID_1_)" cx="180.47" cy="297.14" r="269.502"/>
</g>
<g id="Warstwa_2" display="none">
	<g display="inline">
		<path fill="#FFFFFF" stroke="#063465" stroke-width="8.5039" stroke-miterlimit="10" d="M355.863,165.596
			c0-9.686-7.854-17.539-17.539-17.539H22.617c-9.687,0-17.539,7.854-17.539,17.539c0,9.688,7.853,17.539,17.539,17.539v228.01
			c-9.687,0-17.539,7.852-17.539,17.539s7.853,17.539,17.539,17.539H138.2h84.54h115.584c9.686,0,17.539-7.852,17.539-17.539
			s-7.854-17.539-17.539-17.539v-228.01C348.009,183.135,355.863,175.284,355.863,165.596z M303.244,411.145H57.695v-228.01h245.549
			V411.145z"/>
		<path fill="#FFFFFF" stroke="#063465" stroke-width="8.5039" stroke-miterlimit="10" d="M92.773,323.45h70.157
			c9.687,0,17.539-7.854,17.539-17.539v-70.158c0-9.686-7.853-17.539-17.539-17.539H92.773c-9.686,0-17.539,7.854-17.539,17.539
			v70.158C75.234,315.596,83.087,323.45,92.773,323.45z M110.312,253.292h35.078v35.08h-35.078V253.292z"/>
		<path fill="#FFFFFF" stroke="#063465" stroke-width="8.5039" stroke-miterlimit="10" d="M215.547,253.292h52.618
			c9.688,0,17.539-7.852,17.539-17.539c0-9.686-7.852-17.539-17.539-17.539h-52.618c-9.687,0-17.539,7.854-17.539,17.539
			C198.008,245.44,205.861,253.292,215.547,253.292z"/>
		<path fill="#FFFFFF" stroke="#063465" stroke-width="8.5039" stroke-miterlimit="10" d="M215.547,323.45h52.618
			c9.688,0,17.539-7.854,17.539-17.539c0-9.688-7.852-17.539-17.539-17.539h-52.618c-9.687,0-17.539,7.852-17.539,17.539
			C198.008,315.596,205.861,323.45,215.547,323.45z"/>
		<path fill="#FFFFFF" stroke="#063465" stroke-width="8.5039" stroke-miterlimit="10" d="M92.773,393.606h175.393
			c9.688,0,17.539-7.854,17.539-17.539c0-9.688-7.852-17.539-17.539-17.539H92.773c-9.686,0-17.539,7.852-17.539,17.539
			C75.234,385.753,83.087,393.606,92.773,393.606z"/>
	</g>
</g>
<g id="Warstwa_3" display="none">
	<g display="inline">
		<path fill="#FFFFFF" d="M180.471,90.616c-114.115,0-206.524,92.41-206.524,206.524c0,114.115,92.738,206.523,206.524,206.523
			c113.785,0,206.523-92.738,206.523-206.523C386.995,183.355,294.586,90.616,180.471,90.616z M180.471,115.61
			c44.725,0,85.504,16.114,117.074,43.081l-49.986,49.658c-18.746-14.142-42.096-22.691-67.088-22.691
			c-24.994,0-48.672,8.55-67.088,22.691l-49.986-49.658C94.967,132.053,135.746,115.61,180.471,115.61z M266.631,297.141
			c0,47.355-38.477,86.162-86.16,86.162c-47.686,0-86.162-38.807-86.162-86.162c0-47.356,38.806-86.161,86.162-86.161
			C227.827,210.98,266.631,249.784,266.631,297.141z M-1.06,297.141c0-46.369,17.43-88.792,46.369-120.691l49.658,49.657
			c-16.114,19.403-25.651,44.067-25.651,71.034c0,25.322,8.551,48.671,22.691,67.087l-49.986,49.986
			C15.383,382.644-1.06,341.865-1.06,297.141z M180.471,478.672c-46.369,0-88.793-17.43-120.691-46.369l49.657-49.658
			c19.403,16.113,44.067,25.65,71.034,25.65s51.959-9.537,71.033-25.65l49.658,49.658
			C269.264,460.914,226.84,478.672,180.471,478.672z M318.92,414.215l-49.656-49.986c14.141-18.746,22.691-42.094,22.691-67.087
			c0-26.967-9.537-51.96-25.652-71.034l49.658-49.657c28.611,32.228,46.369,74.322,46.369,120.691
			C362.002,341.865,345.559,382.644,318.92,414.215z"/>
	</g>
</g>
<g id="Warstwa_4" display="none">
	<g id="Layer_32_1_" display="inline">
		<path fill="#F9F7F7" stroke="#F9F7F7" stroke-width="8.5039" stroke-miterlimit="10" d="M302.609,145.865h-3.748v-26.309
			c0-7.266-5.891-13.155-13.154-13.155h-13.154c-7.266,0-13.156,5.89-13.156,13.155v26.309H108.121v-26.309
			c0-7.266-5.889-13.155-13.154-13.155H81.812c-7.265,0-13.154,5.89-13.154,13.155v26.309H58.332
			c-9.457,0.701-16.585,8.887-15.982,18.35v305.314c-0.603,9.463,6.525,17.648,15.982,18.35h244.277
			c9.457-0.701,16.586-8.887,15.982-18.35V164.215C319.195,154.752,312.066,146.567,302.609,145.865z M272.552,119.557h13.154
			v39.463h-13.154V119.557z M81.812,119.557h13.154v39.463H81.812V119.557z M305.437,469.529c0,3.092-1.709,5.195-2.828,5.195
			H58.332c-1.117,0-2.828-2.104-2.828-5.195V164.215c0-3.091,1.711-5.195,2.828-5.195h10.326c0,7.265,5.89,13.154,13.154,13.154
			h13.154c7.266,0,13.154-5.89,13.154-13.154h151.275c0,7.265,5.891,13.154,13.156,13.154h13.154c7.264,0,13.154-5.89,13.154-13.154
			h3.748c1.119,0,2.828,2.104,2.828,5.195V469.529z"/>
		
			<rect x="81.812" y="231.368" fill="#F9F7F7" stroke="#F9F7F7" stroke-width="8.5039" stroke-miterlimit="10" width="197.316" height="13.154"/>
		
			<rect x="81.812" y="270.832" fill="#F9F7F7" stroke="#F9F7F7" stroke-width="8.5039" stroke-miterlimit="10" width="197.316" height="13.154"/>
		
			<rect x="81.812" y="310.295" fill="#F9F7F7" stroke="#F9F7F7" stroke-width="8.5039" stroke-miterlimit="10" width="197.316" height="13.154"/>
		
			<rect x="81.812" y="349.758" fill="#F9F7F7" stroke="#F9F7F7" stroke-width="8.5039" stroke-miterlimit="10" width="197.316" height="13.154"/>
	</g>
</g>
<g id="Warstwa_5" display="none">
	
		<rect x="1.229" y="183.896" display="inline" fill="none" stroke="#F9F7F7" stroke-width="22.6772" stroke-miterlimit="10" width="358.482" height="226.489"/>
	<polygon display="inline" fill="#F9F7F7" points="56.923,361.291 180.47,286.291 304.017,361.291 	"/>
</g>
<g id="Warstwa_6">
	<g>
		<path fill="#FFFFFF" d="M280.707,200.082c0-38.301,0-42.042,0-42.042c0-14.124-44.879-39.893-100.236-39.893
			c-55.362,0-100.236,25.769-100.236,39.893c0,0,0,3.741,0,42.042c0,38.298,69.392,69.941,69.392,97.06
			c0,27.118-69.392,58.757-69.392,97.054c0,38.303,0,42.051,0,42.051c0,14.123,44.874,39.889,100.236,39.889
			c55.357,0,100.236-25.766,100.236-39.889c0,0,0-3.742,0-42.051c0-38.301-69.392-69.936-69.392-97.054
			C211.315,270.023,280.707,238.38,280.707,200.082z M107.81,159.829c12.456-7.859,35.806-19.375,73.636-19.375
			c37.837,0,71.713,19.375,71.713,19.375c2.531,1.538,12.49,6.866,5.677,10.9c-15.012,8.888-44.364,18.252-78.365,18.252
			c-34.002,0-62.372-10.323-77.387-19.214C96.27,165.731,107.81,159.829,107.81,159.829z M189.445,297.141
			c0,21.353,17.826,35.106,36.71,53.458c13.799,13.404,32.681,31.768,32.681,43.596v23.777
			c-17.346-8.648-69.293-17.111-69.293-44.814c0-14.031-18.138-14.031-18.138,0c0,27.703-51.949,36.166-69.297,44.814v-23.777
			c0-11.836,18.886-30.191,32.684-43.596c18.875-18.352,36.704-32.105,36.704-53.458c0-21.354-17.829-35.104-36.715-53.458
			c-13.795-13.411-32.68-31.764-32.68-43.602l-0.842-17.893c18.366,9.887,47.478,19.323,79.211,19.323
			c31.729,0,60.979-9.436,79.345-19.323l-0.979,17.893c0,11.838-18.882,30.198-32.681,43.602
			C207.271,262.038,189.445,275.787,189.445,297.141z"/>
	</g>
</g>
</svg>
