<?xml version="1.0" encoding="utf-8"?>
<!-- Generator: Adobe Illustrator 16.0.0, SVG Export Plug-In . SVG Version: 6.00 Build 0)  -->
<!DOCTYPE svg PUBLIC "-//W3C//DTD SVG 1.1//EN" "http://www.w3.org/Graphics/SVG/1.1/DTD/svg11.dtd">
<svg version="1.1" id="Warstwa_1" xmlns="http://www.w3.org/2000/svg" xmlns:xlink="http://www.w3.org/1999/xlink" x="0px" y="0px"
	 width="100px" height="12.943px" viewBox="0 0 100 12.943" enable-background="new 0 0 100 12.943" xml:space="preserve">
<g>
	<path fill="#FFFFFF" d="M93.5,0.548c3.271,0,5.921,2.652,5.921,5.922c0,3.271-2.649,5.921-5.921,5.921s-5.923-2.649-5.923-5.921
		C87.577,3.2,90.229,0.548,93.5,0.548 M93.5,0c3.573,0,6.471,2.896,6.471,6.47s-2.896,6.47-6.471,6.47s-6.471-2.896-6.471-6.47
		S89.925,0,93.5,0z"/>
	<path fill="#FFFFFF" d="M93.5,1.818c2.568,0,4.65,2.083,4.65,4.652s-2.082,4.653-4.65,4.653c-2.57,0-4.652-2.083-4.652-4.653
		S90.93,1.818,93.5,1.818 M93.5,1.292c2.859,0,5.178,2.317,5.178,5.178c0,2.861-2.316,5.177-5.178,5.177s-5.18-2.315-5.18-5.177
		C88.32,3.611,90.639,1.292,93.5,1.292z"/>
	<path fill="#FFFFFF" d="M93.5,3.078c1.873,0,3.393,1.519,3.393,3.393c0,1.873-1.52,3.392-3.393,3.392
		c-1.875,0-3.395-1.52-3.395-3.392C90.105,4.597,91.625,3.078,93.5,3.078 M93.5,2.591c2.143,0,3.878,1.736,3.878,3.879
		c0,2.142-1.735,3.877-3.878,3.877s-3.879-1.735-3.879-3.877S91.357,2.591,93.5,2.591z"/>
	<path fill="#FFFFFF" d="M93.5,3.82c1.463,0,2.648,1.188,2.648,2.65S94.962,9.12,93.5,9.12c-1.465,0-2.65-1.188-2.65-2.65
		C90.848,5.006,92.035,3.82,93.5,3.82"/>
	<path fill="#FFFFFF" d="M73.439,12.94l4.23-6.747L73.841,0h2.925l2.473,4.152L81.667,0h2.901l-3.846,6.29l4.229,6.65h-3.013
		l-2.741-4.478l-2.757,4.478L73.439,12.94L73.439,12.94z M62.828,12.94V0h8.98v2.191h-6.479v2.866h6.017v2.177h-6.017v3.526h6.714
		v2.179H62.828z M52.5,12.94V0h2.512v10.761h6.211v2.179H52.5z M46.423,7.817l-1.696-4.799l-1.682,4.799H46.423z M51.029,12.94
		H48.31l-1.074-2.936H42.28l-1.02,2.936h-2.654L43.434,0h2.636L51.029,12.94z M26.295,12.94L23.345,0h2.548l1.877,8.884L30.031,0
		h2.964l2.172,9.03L37.071,0h2.522L36.581,12.94h-2.655L31.47,3.273l-2.459,9.667H26.295z M12.327,12.94V0h9.185v2.191h-6.686v2.866
		h6.222v2.177h-6.222v3.526h6.92v2.179H12.327z M0,12.94V0h2.504v5.1h4.902V0h2.5V12.94h-2.5V7.286H2.504v5.654L0,12.94L0,12.94z"/>
</g>
</svg>
