<?xml version="1.0" encoding="utf-8"?>
<!-- Generator: Adobe Illustrator 16.0.0, SVG Export Plug-In . SVG Version: 6.00 Build 0)  -->
<!DOCTYPE svg PUBLIC "-//W3C//DTD SVG 1.1 Tiny//EN" "http://www.w3.org/Graphics/SVG/1.1/DTD/svg11-tiny.dtd">
<svg version="1.1" baseProfile="tiny" id="Warstwa_1"
	 xmlns="http://www.w3.org/2000/svg" xmlns:xlink="http://www.w3.org/1999/xlink" x="0px" y="0px" width="340px" height="341px"
	 viewBox="45.97 132.14 340 341" xml:space="preserve">
<g id="Click">
	<image width="1454" height="1454" xlink:href="5EE5DA0F.png"  transform="matrix(0.24 0 0 0.24 43.2002 130.3704)">
	</image>
	<g>
		<path fill="#FFFFFF" stroke="#000000" stroke-width="2.8347" stroke-miterlimit="10" d="M355.169,455.493
			c-3.498,0.021-6.857-1.353-9.34-3.814L240.593,346.443c-5.158-5.158-5.158-13.521,0-18.68s13.521-5.158,18.68,0l105.234,105.235
			c5.158,5.116,5.193,13.445,0.076,18.604c-0.023,0.025-0.051,0.051-0.076,0.076C362.025,454.14,358.666,455.513,355.169,455.493z"
			/>
		<path fill="#FFFFFF" stroke="#000000" stroke-width="2.8347" stroke-miterlimit="10" d="M157.853,205.559
			c-7.265,0-13.154-5.89-13.154-13.154v-39.463c0-7.266,5.89-13.154,13.154-13.154c7.265,0,13.154,5.889,13.154,13.154v39.463
			C171.007,199.67,165.118,205.559,157.853,205.559z"/>
		<path fill="#FFFFFF" stroke="#000000" stroke-width="2.8347" stroke-miterlimit="10" d="M116.811,217.135
			c-3.497,0.02-6.857-1.353-9.34-3.815l-27.887-28.019c-4.726-5.518-4.083-13.822,1.435-18.548c4.925-4.217,12.188-4.217,17.113,0
			l28.019,27.888c5.158,5.116,5.192,13.444,0.077,18.603c-0.025,0.026-0.051,0.052-0.077,0.076
			C123.668,215.783,120.308,217.155,116.811,217.135z"/>
		<path fill="#FFFFFF" stroke="#000000" stroke-width="2.8347" stroke-miterlimit="10" d="M105.235,258.177H65.772
			c-7.265,0-13.154-5.889-13.154-13.154c0-7.265,5.889-13.154,13.154-13.154h39.463c7.265,0,13.154,5.89,13.154,13.154
			C118.39,252.288,112.5,258.177,105.235,258.177z"/>
		<path fill="#FFFFFF" stroke="#000000" stroke-width="2.8347" stroke-miterlimit="10" d="M88.924,327.106
			c-3.405,0.198-6.753-0.934-9.34-3.157c-5.1-5.131-5.1-13.417,0-18.548l27.887-28.019c5.158-5.158,13.521-5.158,18.679,0
			c5.158,5.158,5.158,13.521,0,18.679l-28.019,27.888C95.579,326.14,92.284,327.27,88.924,327.106z"/>
		<path fill="#FFFFFF" stroke="#000000" stroke-width="2.8347" stroke-miterlimit="10" d="M198.895,217.135
			c-3.497,0.02-6.857-1.353-9.34-3.815c-5.158-5.115-5.192-13.444-0.076-18.603c0.025-0.025,0.051-0.051,0.076-0.076l28.019-27.888
			c5.121-5.303,13.572-5.45,18.877-0.328c5.303,5.121,5.45,13.572,0.328,18.876l-28.545,28.019
			C205.751,215.783,202.391,217.155,198.895,217.135z"/>
		<path fill="#FFFFFF" stroke="#000000" stroke-width="2.8347" stroke-miterlimit="10" d="M346.486,298.429l-184.161-65.771
			c-6.834-2.466-14.373,1.076-16.838,7.91c-1.041,2.885-1.041,6.042,0,8.927l65.772,184.162c1.883,5.208,6.827,8.68,12.365,8.682
			l0,0c5.736-0.189,10.688-4.076,12.234-9.603l24.335-84.978l85.372-23.81c6.984-1.998,11.027-9.28,9.029-16.266
			c-1.156-4.036-4.168-7.279-8.109-8.728V298.429z"/>
	</g>
</g>
</svg>
