<svg xmlns="http://www.w3.org/2000/svg" width="16.661" height="32" viewBox="0 0 16.661 32">
  <path id="Icon_metro-dollar2" data-name="Icon metro-dollar2" d="M26.619,23.364a6.793,6.793,0,0,1-1.777,4.705,7.669,7.669,0,0,1-4.616,2.437v3.125a.55.55,0,0,1-.571.571H17.244a.579.579,0,0,1-.571-.571V30.507a11.256,11.256,0,0,1-2.277-.554A10.966,10.966,0,0,1,11.261,28.3a10.178,10.178,0,0,1-.83-.67q-.223-.214-.312-.321a.542.542,0,0,1-.036-.732l1.839-2.411a.556.556,0,0,1,.411-.214.443.443,0,0,1,.429.161l.036.036a9.325,9.325,0,0,0,4.339,2.232,6.237,6.237,0,0,0,1.321.143A4.33,4.33,0,0,0,21,25.757a2.5,2.5,0,0,0,1.1-2.179,1.81,1.81,0,0,0-.268-.946,3.346,3.346,0,0,0-.6-.75,4.9,4.9,0,0,0-1.045-.67q-.714-.366-1.179-.571t-1.429-.58q-.7-.286-1.1-.446t-1.1-.473q-.7-.312-1.116-.554t-1.009-.634a6.288,6.288,0,0,1-.955-.759,11.129,11.129,0,0,1-.777-.875,4.369,4.369,0,0,1-.634-1.036A7.162,7.162,0,0,1,10.52,14.1a6.2,6.2,0,0,1-.152-1.393,6.106,6.106,0,0,1,1.75-4.321,8.171,8.171,0,0,1,4.554-2.393V2.775a.579.579,0,0,1,.571-.571h2.411a.55.55,0,0,1,.571.571V5.918a9.933,9.933,0,0,1,1.973.411,11.441,11.441,0,0,1,1.554.6,8.6,8.6,0,0,1,1.134.67q.536.375.7.518t.268.25a.517.517,0,0,1,.089.679L24.494,11.65a.486.486,0,0,1-.411.286.569.569,0,0,1-.482-.125q-.054-.054-.259-.214t-.7-.473a9.215,9.215,0,0,0-1.045-.571,7.976,7.976,0,0,0-1.33-.464,5.958,5.958,0,0,0-1.527-.205,4.641,4.641,0,0,0-2.768.768,2.4,2.4,0,0,0-.92,2.839,2.01,2.01,0,0,0,.527.741,7.869,7.869,0,0,0,.705.589,6.29,6.29,0,0,0,1,.554q.67.312,1.08.482t1.25.491q.946.357,1.446.562t1.357.625a10.788,10.788,0,0,1,1.348.759,11.4,11.4,0,0,1,1.107.893,4.623,4.623,0,0,1,.946,1.134,6.471,6.471,0,0,1,.562,1.366,5.891,5.891,0,0,1,.232,1.679Z" transform="translate(-9.957 -2.203)" fill="#e3a14e"/>
</svg>
