<?xml version="1.0" encoding="UTF-8" standalone="no"?>
<!-- Creator: CorelDRAW X5 -->

<svg
   xmlns:dc="http://purl.org/dc/elements/1.1/"
   xmlns:cc="http://creativecommons.org/ns#"
   xmlns:rdf="http://www.w3.org/1999/02/22-rdf-syntax-ns#"
   xmlns:svg="http://www.w3.org/2000/svg"
   xmlns="http://www.w3.org/2000/svg"
   xmlns:sodipodi="http://sodipodi.sourceforge.net/DTD/sodipodi-0.dtd"
   xmlns:inkscape="http://www.inkscape.org/namespaces/inkscape"
   xml:space="preserve"
   width="320.71924"
   height="222.01511"
   style="fill-rule:evenodd"
   viewBox="0 0 90.514097 62.657598"
   id="ico_karta"
   version="1.1"
   inkscape:version="0.48.4 r9939"
   sodipodi:docname="ico_karta.svg"><metadata
   id="metadata14"><rdf:RDF><cc:Work
       rdf:about=""><dc:format>image/svg+xml</dc:format><dc:type
         rdf:resource="http://purl.org/dc/dcmitype/StillImage" /></cc:Work></rdf:RDF></metadata><sodipodi:namedview
   pagecolor="#ffffff"
   bordercolor="#666666"
   borderopacity="1"
   objecttolerance="10"
   gridtolerance="10"
   guidetolerance="10"
   inkscape:pageopacity="0"
   inkscape:pageshadow="2"
   inkscape:window-width="1344"
   inkscape:window-height="732"
   id="namedview12"
   showgrid="false"
   fit-margin-top="0"
   fit-margin-left="0"
   fit-margin-right="0"
   fit-margin-bottom="0"
   inkscape:zoom="0.63429569"
   inkscape:cx="213.83788"
   inkscape:cy="63.427906"
   inkscape:window-x="0"
   inkscape:window-y="0"
   inkscape:window-maximized="0"
   inkscape:current-layer="svg2" />
 <defs
   id="defs4">
  <style
   type="text/css"
   id="style6">
   
    .fil0 {fill:#45A448}
   
  </style>
 </defs>
 <g
   id="Warstwa_x0020_1"
   transform="translate(-59.743001,-117.171)">
  <metadata
   id="CorelCorpID_0Corel-Layer" />
  <path
   class="fil0"
   d="m 66.4736,117.171 77.0529,0 c 1.8528,0 3.5359,0.7566 4.7549,1.9756 1.219,1.219 1.9757,2.9022 1.9757,4.755 l 0,49.1964 c 0,1.8528 -0.7567,3.5359 -1.9757,4.7548 -1.219,1.219 -2.9021,1.9758 -4.7549,1.9758 l -77.0529,0 c -1.8528,0 -3.5359,-0.7568 -4.7549,-1.9758 -1.219,-1.2189 -1.9757,-2.902 -1.9757,-4.7548 l 0,-49.1964 c 0,-1.8528 0.7567,-3.536 1.9757,-4.755 1.219,-1.219 2.9021,-1.9756 4.7549,-1.9756 z m 11.9153,36.0885 14.2475,0 c 1.1246,0 2.0447,0.9201 2.0447,2.0447 l 0,1e-4 c 0,1.1247 -0.9201,2.0448 -2.0447,2.0448 l -14.2475,0 c -1.1246,0 -2.0447,-0.9201 -2.0447,-2.0448 l 0,-1e-4 c 0,-1.1246 0.9201,-2.0447 2.0447,-2.0447 z m -15.0237,-22.4255 83.2697,0 0,-6.9324 c 0,-0.8529 -0.3503,-1.6298 -0.9145,-2.194 -0.5642,-0.5642 -1.341,-0.9145 -2.1939,-0.9145 l -77.0529,0 c -0.8529,0 -1.6297,0.3503 -2.1939,0.9145 -0.5642,0.5642 -0.9145,1.3411 -0.9145,2.194 l 0,6.9324 z m 83.2697,3.4502 -83.2697,0 0,38.8138 c 0,0.8529 0.3503,1.6296 0.9145,2.1938 0.5642,0.5643 1.341,0.9146 2.1939,0.9146 l 77.0529,0 c 0.8529,0 1.6297,-0.3503 2.1939,-0.9146 0.5642,-0.5642 0.9145,-1.3409 0.9145,-2.1938 l 0,-38.8138 z"
   id="path10"
   inkscape:connector-curvature="0"
   style="fill:#e3a14e" />
 </g>
</svg>
