<svg xmlns="http://www.w3.org/2000/svg" width="24" height="24" viewBox="0 0 24 24">
  <path id="Icon_metro-warning" data-name="Icon metro-warning" d="M14.571,4.1,24.628,24.147H4.514L14.571,4.1Zm0-2.174a1.735,1.735,0,0,0-1.427,1.046L2.9,23.391c-.785,1.4-.117,2.537,1.484,2.537H24.758c1.6,0,2.269-1.142,1.484-2.537h0L16,2.974a1.735,1.735,0,0,0-1.427-1.046Zm1.5,19.5a1.5,1.5,0,1,1-1.5-1.5A1.5,1.5,0,0,1,16.071,21.428Zm-1.5-3a1.5,1.5,0,0,1-1.5-1.5v-4.5a1.5,1.5,0,1,1,3,0v4.5A1.5,1.5,0,0,1,14.571,18.428Z" transform="translate(-2.571 -1.928)" fill="#c66a00"/>
</svg>
