<?xml version="1.0" encoding="UTF-8"?>
<svg width="200px" height="30px" clip-rule="evenodd" fill-rule="evenodd" image-rendering="optimizeQuality" shape-rendering="geometricPrecision" text-rendering="geometricPrecision" version="1.1" viewBox="0 0 200 30" xml:space="preserve" xmlns="http://www.w3.org/2000/svg">
   <polygon fill="#2B2A29" points="41.755 2.8087 41.755 12.271 52.962 12.271 52.962 2.8087 58.932 2.8087 58.932 27.192 52.962 27.192 52.962 17.219 41.755 17.219 41.755 27.192 35.75 27.192 35.75 2.8087"/>
   <path fill="#2B2A29" d="m68.469 15.546h10.08c-0.21732-2.1473-2.0008-3.3118-4.6937-3.3118h-0.69095c-2.876 0-4.4764 1.1646-4.6949 3.3118zm5.4225-7.3878c5.9315 0 10.19 2.876 10.19 8.6989v2.3646h-15.648v0.21851c0 2.6929 1.7102 4.0394 4.767 4.0394h0.69213c2.5477 0 4.1481-0.72756 4.6571-2.511h5.3504c-0.51024 3.8575-3.7122 6.5871-10.008 6.5871h-0.69213c-5.9315 0-10.262-2.7662-10.262-8.589v-2.1095c0-5.8229 4.2933-8.6989 10.262-8.6989h0.69213z"/>
   <polygon fill="#2B2A29" points="91.907 8.5229 95.074 21.514 96.238 21.514 99.258 8.5229 105.77 8.5229 108.65 21.514 109.88 21.514 113.16 8.5229 118.18 8.5229 113.45 27.192 105.23 27.192 102.61 15.437 101.59 15.437 98.821 27.192 90.779 27.192 86.266 8.5229"/>
   <path fill="#2B2A29" d="m125.86 21.332c0 1.2378 1.0193 2.002 3.4571 2.002 2.439 0 5.1319-0.87402 5.1319-3.5303v-0.54567h-5.2052c-2.4378 0-3.3839 0.69095-3.3839 2.074zm4.8402-13.174c6.5871 0 9.5706 2.5122 9.5706 6.7701v12.264h-5.8217v-2.3658h-0.87402c-1.4563 1.8933-3.5303 2.7296-6.6957 2.7296-3.9307 0-6.769-1.7469-6.769-5.641 0-3.7843 2.511-6.0036 8.3339-6.0036h6.0048v-0.98268c0-1.8567-1.2744-2.7296-3.7855-2.7296h-0.65434c-2.4024 0-3.7855 0.83623-3.7855 2.6563h-5.713c0-4.2213 3.2386-6.6969 9.4973-6.6969h0.69213z"/>
   <polygon fill="#2B2A29" points="150.07 2.8087 150.07 27.192 144.24 27.192 144.24 2.8087"/>
   <path fill="#2B2A29" d="m159.35 15.546h10.081c-0.21732-2.1473-2.002-3.3118-4.6937-3.3118h-0.69213c-2.8748 0-4.4752 1.1646-4.6949 3.3118zm5.4225-7.3878c5.9327 0 10.19 2.876 10.19 8.6989v2.3646h-15.647v0.21851c0 2.6929 1.7102 4.0394 4.767 4.0394h0.69095c2.5477 0 4.1492-0.72756 4.6583-2.511h5.3492c-0.50906 3.8575-3.7122 6.5871-10.008 6.5871h-0.69095c-5.9315 0-10.263-2.7662-10.263-8.589v-2.1095c0-5.8229 4.2945-8.6989 10.263-8.6989h0.69095z"/>
   <polygon fill="#2B2A29" points="183.12 8.5229 187.26 13.217 188.98 13.217 193.16 8.5229 199.31 8.5229 191.41 17.511 200 27.192 193.27 27.192 188.61 22.061 186.9 22.061 182.39 27.192 176.16 27.192 184.5 17.73 176.24 8.5229"/>
   <path fill="#E3A74E" d="m14.964 15.475v-0.94961c0-7.4186 2.9634-13.127 9.1406-14.629v8.1863c-2.113 0.93898-3.1784 3.1666-3.1784 6.443v0.94961c0 3.2764 1.0654 5.504 3.1784 6.443v8.1863c-6.1772-1.5024-9.1406-7.2107-9.1406-14.629z"/>
   <path fill="#E3A74E" d="m9.1406 14.525v0.94961c0 7.4186-2.9634 13.127-9.1406 14.629v-8.1863c2.113-0.93898 3.1772-3.1666 3.1772-6.443v-0.94961c0-3.2764-1.0642-5.504-3.1772-6.443v-8.1863c6.1772 1.5024 9.1406 7.2107 9.1406 14.629z"/>
</svg>
